<svg xmlns="http://www.w3.org/2000/svg" viewBox="0 0 293.97 371.82"><defs><style>.cls-1{fill:#04517c;}.cls-2,.cls-3{fill:#d70e29;}.cls-3{stroke:#fff;}.cls-29,.cls-3{stroke-miterlimit:10;}.cls-10,.cls-11,.cls-12,.cls-13,.cls-14,.cls-15,.cls-16,.cls-17,.cls-18,.cls-19,.cls-20,.cls-21,.cls-22,.cls-23,.cls-24,.cls-25,.cls-30,.cls-31,.cls-32,.cls-33,.cls-4,.cls-5,.cls-6,.cls-7,.cls-8,.cls-9{isolation:isolate;font-family:FranklinGothic-Book, Franklin Gothic Book;}.cls-4{font-size:18.36px;}.cls-10,.cls-11,.cls-12,.cls-13,.cls-14,.cls-15,.cls-16,.cls-17,.cls-18,.cls-19,.cls-20,.cls-21,.cls-22,.cls-23,.cls-24,.cls-25,.cls-27,.cls-30,.cls-31,.cls-32,.cls-33,.cls-4,.cls-5,.cls-6,.cls-7,.cls-8,.cls-9{fill:#fff;}.cls-5{font-size:18.35px;}.cls-6{font-size:18.35px;}.cls-7{font-size:18.29px;}.cls-8{font-size:18.35px;}.cls-9{font-size:18.35px;}.cls-10{font-size:18.35px;}.cls-11{font-size:18.35px;}.cls-12{font-size:18.35px;}.cls-13{font-size:18.29px;}.cls-14{font-size:18.35px;}.cls-15{font-size:18.35px;}.cls-16{font-size:18.35px;}.cls-17{font-size:18.35px;}.cls-18{font-size:18.32px;}.cls-19{font-size:18.35px;}.cls-20{font-size:18.27px;}.cls-21{font-size:18.38px;}.cls-22{font-size:18.26px;}.cls-23{font-size:18.3px;}.cls-24{font-size:18.36px;}.cls-25{font-size:18.39px;}.cls-26{fill:#ffd301;}.cls-28{fill:#fafafa;}.cls-29{fill:none;stroke:#e31313;}.cls-30{font-size:26.27px;}.cls-31{font-size:26.22px;}.cls-32{font-size:26.22px;}.cls-33{font-size:26.22px;}.cls-34{fill:#f1f1f1;fill-rule:evenodd;}</style></defs><g id="Layer_2" data-name="Layer 2"><g id="Layer_1-2" data-name="Layer 1"><g id="Layer_2-2" data-name="Layer 2"><g id="Layer_1-2-2" data-name="Layer 1-2"><circle class="cls-1" cx="146.71" cy="224.59" r="140.99"/><path class="cls-2" d="M147,77.84c-81.05,0-147,65.94-147,147A146.12,146.12,0,0,0,15.24,290a40.23,40.23,0,0,1,4.69-1.55,141.27,141.27,0,0,1-15-63.56C4.89,146.49,68.63,82.75,147,82.75s142.09,63.74,142.09,142.09S225.34,366.92,147,366.92a141.33,141.33,0,0,1-81.63-25.85q-2.78.92-5.45,2.1A146.22,146.22,0,0,0,147,371.82c81,0,147-65.94,147-147S228,77.84,147,77.84Z"/><path class="cls-2" d="M42.44,328c57,57.67,150.21,58.24,207.88,1.29A146.13,146.13,0,0,0,286,272.66a38.71,38.71,0,0,1-4.4-2.24,141.22,141.22,0,0,1-34.66,55.36C191.15,380.84,101,380.28,46,324.53S-8.54,178.65,47.19,123.59s145.9-54.48,201,1.25a141.29,141.29,0,0,1,39,76.24,57.86,57.86,0,0,0,5.33,2.4,146.24,146.24,0,0,0-40.8-82.08c-57-57.67-150.21-58.25-207.88-1.3S-14.51,270.31,42.44,328Z"/><path class="cls-1" d="M6.07,214.91a141.19,141.19,0,0,0,195.57,140,30.92,30.92,0,0,1-.14-5.61c.41-5.77,2.37-10.26,4.1-14.22a28.57,28.57,0,0,0,2.58-7.64c0-.33.06-.66.08-1a52.86,52.86,0,0,0-2.8-21.91A99,99,0,0,1,53.59,191.66,71.67,71.67,0,0,1,181,131.84c1.65.6,3.26,1.26,4.86,1.95l1.4.61a99,99,0,0,1,58.34,97.26q-.34,4.83-1.13,9.51a40.19,40.19,0,0,1,8.7,14.23c3.84,10,5.48,22.35,4.62,34.65-.14,2.06-.36,4.13-.64,6.13-.15,1.07-.26,2.16-.34,3.23a49.72,49.72,0,0,0,.83,12.83A141.15,141.15,0,1,0,6.07,214.91Z"/><path class="cls-1" d="M269.43,154.71a141.2,141.2,0,0,0-240.4-7,31.23,31.23,0,0,1,3.25,4.59c2.88,5,3.76,9.83,4.54,14.09a29.53,29.53,0,0,0,2.11,7.78l.49.86A53,53,0,0,0,54,191.7a99,99,0,0,1,189,8.83,71.67,71.67,0,0,1-72.31,120.76c-1.7.42-3.41.77-5.12,1.1l-1.5.25a99,99,0,0,1-102.7-48.12A95.13,95.13,0,0,1,57,266a40.39,40.39,0,0,1-15.17-6.95c-8.79-6.2-17-15.5-23.17-26.17-1-1.78-2-3.61-2.9-5.44-.47-1-1-1.94-1.52-2.87a48.86,48.86,0,0,0-7.85-10.18,141.15,141.15,0,1,0,263.06-59.68Z"/><circle class="cls-3" cx="146.87" cy="225.92" r="98.98"/><text class="cls-4" transform="translate(33.56 205.88) rotate(-78.47)">F</text><text class="cls-5" transform="matrix(0.28, -0.96, 0.96, 0.28, 35.77, 196.8)">E</text><text class="cls-6" transform="translate(38.27 186.76) rotate(-68)">D</text><text class="cls-6" transform="translate(42.6 176.17) rotate(-63.34)">E</text><text class="cls-6" transform="matrix(0.54, -0.84, 0.84, 0.54, 47.73, 166.39)">R</text><text class="cls-7" transform="translate(53.78 156.48) rotate(-51.52)">A</text><text class="cls-8" transform="translate(59.98 149.44) rotate(-46.87)">T</text><text class="cls-9" transform="matrix(0.73, -0.69, 0.69, 0.73, 66.39, 142.41)">I</text><text class="cls-10" transform="translate(70.43 139.49) rotate(-39.12)">O</text><text class="cls-11" transform="matrix(0.84, -0.55, 0.55, 0.84, 79.04, 131.57)">N</text><text class="cls-11" transform="translate(100.07 119.4) rotate(-21.43)">T</text><text class="cls-12" transform="translate(108.81 116.36) rotate(-16.33)">U</text><text class="cls-13" transform="translate(119.89 113.27) rotate(-10.41)">N</text><text class="cls-14" transform="translate(130.94 111.11) rotate(-6.3)">I</text><text class="cls-15" transform="matrix(1, -0.04, 0.04, 1, 136.72, 110.3)">S</text><text class="cls-16" transform="matrix(1, 0.03, -0.03, 1, 147.02, 109.74)">I</text><text class="cls-17" transform="translate(151.8 110.23) rotate(5.45)">E</text><text class="cls-18" transform="translate(162.18 110.65) rotate(10.97)">N</text><text class="cls-19" transform="translate(173.57 113.48) rotate(16.85)">N</text><text class="cls-20" transform="translate(184.33 116.4) rotate(22.44)">E</text><text class="cls-21" transform="translate(205.28 126.44) rotate(34.01)">V</text><text class="cls-22" transform="matrix(0.77, 0.63, -0.63, 0.77, 214.05, 132.29)">O</text><text class="cls-23" transform="translate(222.17 138.9) rotate(44.59)">L</text><text class="cls-24" transform="matrix(0.65, 0.76, -0.76, 0.65, 229.21, 145.43)">L</text><text class="cls-15" transform="translate(235.09 152.78) rotate(53.96)">E</text><text class="cls-16" transform="translate(240.77 160.99) rotate(58.9)">Y</text><text class="cls-25" transform="translate(245.6 168.21) rotate(63.95)">B</text><text class="cls-6" transform="translate(250.94 178.64) rotate(69.83)">A</text><text class="cls-6" transform="translate(254.41 189.17) rotate(74.81)">L</text><text class="cls-8" transform="translate(256.85 198.15) rotate(79.33)">L</text><polygon class="cls-26" points="116.96 22.41 133.73 35.94 128.64 57.24 146.97 45.26 165.35 56.47 159.93 35.55 176.57 21.31 154.7 20.22 146.3 0 138.5 20.46 116.96 22.41"/><path class="cls-27" d="M190,284.55l1.39-2.82c.39,1.41,1.28,1.21,2.18,1l.42-.14c.86-.3,2.13-.15,2.52-.89s-.15-1.78-.28-2.69c0-.31-.12-.61-.16-.92-.31-2.13-.31-2.13-2.35-2,.26-.81.16-1.83,1.36-1.92.43,0,.33-.47.26-.75-.63-2.62.56-5,.72-7.57,0-.36.26-.38.51-.46.92-.26,1.81-.65,2.74-.86.75-.18,1-.5.92-1.34-.15-1.15-.14-2.32-.24-3.48s-.32-1.41-1.44-1.09c-.64.18-1.27.4-1.9.6-.35-1.3.15-1.94,1.35-2.11.28,0,.55-.25.83-.28.78-.11,1-.55.95-1.36-.08-1.23-.06-2.47-.09-3.72s-.19-1.37-1.29-1.07A13.44,13.44,0,0,1,197,251c-.3,0-.84.64-.92-.17-.05-.49-.56-1.2.49-1.44s2.39-.29,2.9-1.13.28-2.17.3-3.29c0-2.38.64-2.95-2.32-1.91-2,.7-2,.67-2.11,2.81a11.66,11.66,0,0,1-1-5.68c.11-1,.15-1.93.24-2.89s-.29-1.37-1.23-1a4.06,4.06,0,0,1-.85.21c-.66.06-.57-.6-.74-1s.2-.51.45-.51c2.3-.12,3.08-1.51,3-3.75a10.77,10.77,0,0,1,.2-2c.1-.81-.32-.95-.92-.79-1.11.28-2.2.62-3.31.88-.38.1-.45.32-.49.65-.1.76-.22,1.51-.35,2.33-.83-.76-.91-1.85-1.57-2.58-.88-1-.82-1.12.39-1.59a.61.61,0,0,0,.47-.55c.21-1.57.47-3.14.68-4.71.11-.78-.22-1.08-1-.88-1.11.29-2.22.56-3.33.83-.86.21-.43,1-.77,1.7l-2.63-3.1c2-.46,3.9-.87,5.78-1.31,11.27-2.65,22.36-6,33.37-9.63a20.79,20.79,0,0,1,4.93-.51,13.1,13.1,0,0,1-3.13,1.38,1.52,1.52,0,0,0-1.1,1.25,43.19,43.19,0,0,1-1,4.5c-.3,1,.15.92.77.9.79,0,1.59,0,2.72,0-1.24.52-2.15,1-3.11,1.27a1.41,1.41,0,0,0-1.09,1.36c-.19,1.41-.47,2.82-.74,4.23-.12.61.05.82.66.77a12.4,12.4,0,0,1,2.65.13c-1,.41-2,.83-3,1.23-.4.16-.7.34-.74.87-.14,1.66-.28,3.32-.5,5-.1.79.2.91.84.88.85,0,1.69,0,2.59,0a7.33,7.33,0,0,1-2.41,1.11,1.57,1.57,0,0,0-1.27,1.79,34.37,34.37,0,0,1-.16,4.06c-.05.68.19.84.8.82a7.77,7.77,0,0,1,2.69.19c-1.12.47-2,.87-3,1.23a.77.77,0,0,0-.57.84c.06,1.63.08,3.25.12,4.88,0,.58.14.89.83.81a11.14,11.14,0,0,1,2.94.12c-1,.42-2,.86-3,1.26a.75.75,0,0,0-.59.92q.27,2.31.45,4.62c0,.62.3.76.85.73,1-.05,2.06,0,3.38,0-1.21.51-2.14,1-3.1,1.32-.57.21-.83.46-.7,1.16.33,1.63.61,3.27.85,4.91.08.54.3.71.79.7,1,0,1.92,0,3.13,0a13.68,13.68,0,0,1-2.84,1.36c-.36.17-.64.23-.49.8.44,1.68.82,3.37,1.2,5.07.12.52.42.52.82.52,1.17,0,2.33,0,3.51.05A356.77,356.77,0,0,1,190,284.55Zm19.42-14.94,3.8-1.49c.28-.12.24-.33.2-.57-.23-1.53-.45-3.05-.67-4.58-.12-.88-.57-1.22-1.38-.91-1,.39-2.06.77-3.1,1.19-.28.11-.51.26-.45.66.24,1.6.42,3.22.67,4.82.08.46.3.9.93.88Zm1.75,7.75L214.8,276c.26-.11.26-.34.22-.58-.35-1.55-.69-3.07-1-4.61-.17-.71-.57-1-1.23-.69-1.1.43-2.19.86-3.3,1.25a.51.51,0,0,0-.4.61.29.29,0,0,0,0,.09c.31,1.55.6,3.1.93,4.65.09.39.33.77,1.14.64Zm-7.76-5.71a26.68,26.68,0,0,0,3.67-1.27c.21-.08.24-.26.21-.48-.22-1.65-.43-3.3-.68-4.95-.09-.62-.42-1-1.1-.72-1.07.39-2.16.74-3.25,1.1-.27.09-.47.2-.42.56a49.88,49.88,0,0,0,.66,5.18c.1.43.38.63.91.56Zm3.35.64c-1.06.35-2.35.77-3.64,1.22-.22.08-.21.3-.17.5.28,1.54.55,3.11.86,4.66a.86.86,0,0,0,1.24.74l3.34-1.15c.24-.08.44-.17.36-.57-.34-1.55-.63-3.1-.94-4.65-.09-.46-.28-.82-1-.77Zm8.43-2.78c.39,1.83.7,3.38,1.07,4.91.17.73.71.81,1.3.57,1-.43,2-.88,3.06-1.29a.52.52,0,0,0,.41-.61l0-.09-1-4.51c-.19-.77-.61-1-1.32-.67-1,.44-2,.85-3,1.27-.28.12-.52.29-.48.41Zm-1.29-7.58c.23,1.48.47,3,.69,4.45.12.79.51,1.08,1.23.79,1-.41,2-.86,3.06-1.28.34-.13.42-.35.36-.71-.24-1.52-.46-3-.7-4.57-.12-.82-.55-1.14-1.31-.82-1,.41-1.88.86-2.84,1.23-.47.16-.48.48-.48.89Zm-12.74,9.81c-.17-1.58-.33-3.16-.51-4.74-.09-.7-.47-1-1.16-.82-1,.32-2,.66-3.06.95-.33.1-.39.26-.36.58.17,1.61.32,3.23.52,4.84.09.78.51,1.08,1.24.82.94-.31,1.89-.62,2.84-.95.31-.11.68-.18.51-.69Zm-4.11,4c.26,1.66.51,3.07.73,4.48.12.82.53,1.15,1.29.91,1-.31,2-.64,3-.94.35-.1.47-.26.4-.67-.28-1.51-.52-3-.8-4.55-.13-.69-.52-1-1.21-.78-1,.33-2,.64-2.94.94-.41.14-.6.37-.51.6ZM207.18,258c.07.81.15,1.61.21,2.42s.48,1.31,1.39.91,1.9-.8,2.87-1.13c.52-.18.58-.49.54-1-.1-1.19-.16-2.39-.26-3.58-.13-1.51-.33-1.63-1.73-1.11-.42.15-.82.32-1.23.48-1.95.79-1.95.79-1.77,3Zm.06-21.58c-.08,1.68.06,1.81,1.54,1.25.87-.31,1.72-.67,2.59-1,.24-.09.5-.12.53-.48.15-1.73.33-3.46.48-5.19,0-.41-.17-.73-.59-.59a18.08,18.08,0,0,0-3.89,1.52c-.58.38-.32,1.66-.43,2.54-.06.64-.14,1.28-.22,1.94Zm4.3,13.35c0-.74,0-1.47,0-2.2-.08-1.3-.26-1.42-1.44-1s-2.5.55-3.08,1.36-.18,2.23-.18,3.39c0,2.78.09,2.84,2.56,1.84C211.6,252.29,211.6,252.29,211.54,249.78Zm-6,2.11c0-.82,0-1.63,0-2.44s-.33-1.08-1.07-.82c-1,.36-2,.72-3,1a.68.68,0,0,0-.52.76c0,1.16,0,2.32,0,3.48,0,2.09.23,2.21,2.13,1.59,2.55-.83,2.55-.83,2.52-3.6Zm-9-30c0-1.37-.06-1.49-1-1.27s-2.06.56-3.08.83c-.29.07-.54.12-.59.53-.22,1.61-.6,3.18-.7,4.81,0,.68.23.94.84.79,1.13-.28,2.26-.6,3.4-.89a.55.55,0,0,0,.47-.52C196.05,224.61,196.31,223.09,196.5,221.86Zm4.8,16.56c-.06,1.82,0,1.88,1.7,1.31.77-.26,1.52-.55,2.28-.84.31-.11.58-.21.61-.68.12-1.62.32-3.23.45-4.84,0-.55-.17-.93-.77-.74a12.41,12.41,0,0,0-3.62,1.31c-.65.49-.33,1.88-.45,2.87-.06.53-.13,1.07-.2,1.61Zm4.91,23.22c-.15-1.59-.28-3-.4-4.37-.06-.71-.37-1-1-.74-1,.38-2.09.75-3.14,1.1a.67.67,0,0,0-.49.78c.12,1.42.21,2.85.32,4.28.06.79.41,1.11,1.19.8q1.44-.57,2.91-1.05c.51-.17.76-.43.64-.8Zm8.87-46c-.05-.37.14-1-.32-.87a17.51,17.51,0,0,0-4.34,1.53s-.08.13-.1.21c-.34,1.66-.68,3.31-1,5,0,.24-.11.55.26.66a15.72,15.72,0,0,0,4.39-1.6,1,1,0,0,0,.06-.23c.35-1.56.71-3.14,1.05-4.67Zm-6.22,1.94c0-.59-.23-.8-.75-.63-1.19.38-2.38.77-3.57,1.13a.66.66,0,0,0-.47.58c-.31,1.55-.62,3.1-.89,4.65-.13.7.13,1.06.85.83l3.36-1.13a.59.59,0,0,0,.43-.47c.33-1.64.69-3.3,1-4.95Zm2.88,23.83V239.7c0-1.35-.12-1.44-1.33-1-3.49,1.19-3.43,1.2-3.52,5-.06,2.91.44,2.17,2.16,1.53C211.57,244.3,211.56,244.28,211.74,241.44Zm-16.17-1.21c-.07,1.66,0,1.75,1.55,1.29.77-.24,1.54-.5,2.3-.75a.71.71,0,0,0,.58-.71c.11-1.5.28-3,.42-4.49a1.12,1.12,0,0,0-.21-1c-.4-.37-4,.81-4.2,1.35a2,2,0,0,0-.06.34c-.14,1.36-.27,2.7-.38,3.95Zm21.7,7v-2.32c0-.84-.4-1-1.07-.74-1,.41-2,.86-2.95,1.29-.22.09-.4.19-.4.47,0,1.66,0,3.33.08,5a.58.58,0,0,0,.85.59c.34-.13.69-.26,1-.41,2.49-1.08,2.49-1.08,2.46-3.86Zm-11.53-3.53c0-.77,0-1.55,0-2.32s-.29-.92-.93-.69c-1,.38-2.07.73-3.13,1.07a.78.78,0,0,0-.56.86c0,1.39,0,2.78-.11,4.18,0,.91.31,1.2,1.13.9.24-.09.49-.16.73-.24,2.61-.88,2.61-.89,2.87-3.75ZM197.87,226c1.19-.38,2.39-.74,3.57-1.14.13,0,.26-.28.29-.45q.47-2.39.9-4.77c.06-.31.09-.63-.28-.78a12.46,12.46,0,0,0-4.15,1.24.4.4,0,0,0-.09.21c-.29,1.63-.58,3.26-.84,4.91-.07.41,0,.78.6.78ZM218,256.74c-.13-1.44-.25-2.66-.35-3.89-.08-.83-.48-1.07-1.2-.75-.94.43-1.87.87-2.84,1.26-.32.13-.51.29-.47.66.13,1.5.26,3,.4,4.5.07.77.51.84,1.11.59.81-.35,1.6-.77,2.43-1.05s1.13-.66.92-1.31Zm-10.61-31c.15-.91-.3-1-1-.79-1.06.34-2.1.72-3.15,1.07a.67.67,0,0,0-.55.62c-.2,1.5-.44,3-.63,4.49-.09.66.23,1,.85.77,1.12-.38,2.23-.79,3.34-1.2a.62.62,0,0,0,.42-.59c.22-1.45.45-2.9.68-4.36Zm.71,3.21c0,.61.1,1.1.8.86,1.22-.41,2.41-.9,3.61-1.36a.5.5,0,0,0,.32-.43c.23-1.53.48-3.05.7-4.58.08-.57-.08-.94-.74-.7-1.17.43-2.35.87-3.53,1.27-.37.13-.41.42-.46.72-.24,1.41-.47,2.82-.7,4.23Zm5.24,5.19c-.1,1.72,0,1.8,1.37,1.29.82-.33,1.63-.69,2.44-1,.26-.11.52-.19.57-.6.14-1.61.32-3.23.5-4.84.09-.84-.35-.92-.94-.69-1,.39-2,.82-3,1.22a.8.8,0,0,0-.53.78c-.14,1.37-.32,2.75-.45,3.88Zm-.34,6.34c0,.27,0,.54,0,.81-.23,2.71-.17,2.47,2.18,1.63,1.6-.57,2.48-1.38,2.24-3.24a9.48,9.48,0,0,1,.07-1.5c.12-2.37.14-2.26-2-1.49-1.82.66-2.94,1.59-2.47,3.8Zm2.56-21.46c-.06.72,0,1.14.55.93,1.21-.45,2.4-.95,3.59-1.44.19-.08.23-.27.26-.47.37-1.53.73-3.07,1.11-4.6.23-.92-.19-1-.87-.78-1,.41-2,.85-3.07,1.26-.21.09-.41.15-.47.42-.38,1.66-.77,3.32-1.1,4.69Zm-19.27,13.56c0,.44-.09.78.21,1s4.11-.93,4.2-1.45c.26-1.56.46-3.13.66-4.7.05-.39-.1-.78-.54-.66-1.24.32-2.47.7-3.69,1.1-.13,0-.2.39-.24.61C196.63,229.92,196.43,231.33,196.25,232.61Zm17.92-5.85c0,.49,0,.78.27.92s4-1.42,4.13-1.84a.5.5,0,0,0,0-.12l.81-4.55c.09-.5-.08-.82-.57-.64-1.21.45-2.39.95-3.59,1.43-.21.08-.22.3-.26.47-.28,1.52-.56,3-.81,4.33Z"/><path class="cls-27" d="M109.66,221.25c-1.29,2-1.36,2-3.46,1.5-.86-.22-1-.07-1,.88.11,1.47.75,3.1-.86,4.41-.12-1.3-.24-2.49-.34-3.7-.16-2-.34-2.24-2.22-2.7-.93-.23-1.86-.42-3-.67.22,1.8.4,3.53.63,5.24.11.82.74,1.12,1.41,1.29,1.13.29,2.28.54,3.4.78-.34,1.24-1,1.45-2.16,1.15-2.38-.64-2.43-.56-2.16,2.09.12,1.12-.15,2.35.67,3.33.07.08-.06.36-.13.52a29.31,29.31,0,0,1-1.29,2.75c.2-2-1-2.39-2.38-2.78-2.42-.68-2.41-.72-2.34,1.91,0,.26,0,.55,0,.82.07,2.75.16,2.88,2.61,3.61.47.15.94.16.71.94s-.41.81-1.09.6c-1.91-.6-1.93-.56-2,1.56,0,.81,0,1.63,0,2.44s.18,1.47.95,1.69.51.7.47,1.18-.35.67-.83.49-.43.24-.45.52c-.05,1.28-.14,2.55-.14,3.83a2.36,2.36,0,0,0,.58,1.81,1,1,0,0,1-.4,1.68c-.25.09-.22.24-.23.42-.09,1.47-.18,2.94-.26,4.41,0,.49.06,1,.55,1.15,1,.25,1.15,1,1.06,1.9-.06,0-.13.1-.18.08-1.58-.42-1.6-.43-1.79,1.29-.13,1.16-.2,2.33-.31,3.48a1.18,1.18,0,0,0,.89,1.38l.31.13c.91.39,2.41.16,2.68,1,.63,2,1.9,3.87,1.39,6.2-.36,1.64-.11,1.9,1.44,2.36.61.18.61.18,1.09,1.2-11.17-2.92-22-6.53-32.82-10.39l.09-.16s.05.06.08.06c1.1,0,2.2,0,3.3,0,.49,0,.71-.12.82-.67.18-.94.49-1.86.73-2.8.47-1.82,0-2.77-1.59-3.51a6.35,6.35,0,0,1-1.49-.76c1,0,2,0,3,0,.46,0,.63-.13.71-.61.2-1.14.48-2.26.69-3.4a2.57,2.57,0,0,0-1.47-3.13c-.68-.35-1.4-.59-2.25-.95h3.32c.4,0,.69,0,.75-.58.09-1,.29-1.91.42-2.87a2.77,2.77,0,0,0-1.77-3.33c-.63-.3-1.28-.53-2-.84,1,0,1.83-.06,2.67,0s1.29-.08,1.28-1.1a24.11,24.11,0,0,1,.2-2.55,3,3,0,0,0-1.76-3.39c-.64-.33-1.33-.56-2.31-1,1.3,0,2.26,0,3.22,0,.52,0,.72-.07.72-.66,0-1.15,0-2.3.07-3.44a2.86,2.86,0,0,0-1.5-2.54c-.68-.43-1.44-.68-2.18-1.08h3.23c0-1.23,0-2.35,0-3.47a3.78,3.78,0,0,0-2.53-3.92l-1.73-.68a9.12,9.12,0,0,1,2.82,0c.68.05.81-.18.74-.81-.12-1-.16-1.93-.26-2.9a3.73,3.73,0,0,0-2.63-3.25,3.75,3.75,0,0,1-1.22-.68c.8,0,1.61,0,2.41,0,.46,0,.67,0,.58-.61-.19-1.18-.29-2.39-.52-3.56a3.74,3.74,0,0,0-2.25-2.82c-.7-.32-1.4-.61-2.21-1,2.75-.32,5.14.62,7.55,1.45A300.17,300.17,0,0,0,109.24,221,2.13,2.13,0,0,1,109.66,221.25Zm-26.35,17.4c-.07-.11-.15-.13-.22,0l.11.12a43.88,43.88,0,0,0,0,4.73,1.44,1.44,0,0,0,1,1.42l3.66,1.32v-4.74a1.7,1.7,0,0,0-1.21-1.73Zm3.22,31.2c.21-1.76.42-3.4.6-5a1.44,1.44,0,0,0-1-1.69L83,262c-.37-.14-.59-.17-.65.37-.15,1.54-.36,3.07-.54,4.6a1.28,1.28,0,0,0,.87,1.52Zm-.36,2.8a1.32,1.32,0,0,0-.94-1.52L82,270c-.31-.11-.56-.16-.64.3-.26,1.52-.53,3-.77,4.56a1.14,1.14,0,0,0,.87,1.39c1.11.38,2.22.76,3.34,1.12.27.09.57.18.64-.31.23-1.49.48-3,.73-4.45Zm-10.35-7.9c-.17.6.28,1.16,1.11,1.5s1.86.72,2.77,1.13c.52.23.67.08.73-.48.16-1.31.36-2.61.58-3.91a1.87,1.87,0,0,0-1.4-2.36,22.8,22.8,0,0,1-2.36-.95c-.49-.23-.69-.18-.77.42-.17,1.42-.4,2.83-.66,4.65Zm-1.35,7.68a1.26,1.26,0,0,0,.84,1.47c1.06.43,2.14.8,3.19,1.26.45.2.58,0,.65-.39.25-1.63.53-3.27.83-4.9.09-.46-.11-.62-.45-.76-1.16-.47-2.32-.94-3.47-1.43-.37-.16-.6-.15-.7.33C75.07,269.49,74.76,271,74.47,272.43Zm23.7,4.18c.22-.85-.32-1.47-1.38-1.74-.89-.23-1.78-.47-2.66-.73-.43-.13-.65-.08-.72.47-.16,1.38-.38,2.76-.59,4.14a1.27,1.27,0,0,0,.92,1.59c1.09.32,2.2.6,3.29.94.4.12.51,0,.56-.4.17-1.31.35-2.61.59-4.27ZM93,266.43c.09-.52-.35-1.06-1.16-1.32s-1.83-.55-2.73-.87c-.45-.16-.56-.06-.62.42-.16,1.49-.38,3-.56,4.49a1.34,1.34,0,0,0,1,1.58c.91.28,1.83.53,2.73.87.62.23.77-.06.83-.6.15-1.38.31-2.77.52-4.57Zm-.92,8.26a1.27,1.27,0,0,0-1-1.55c-.92-.27-1.84-.53-2.73-.88-.61-.24-.74,0-.82.57-.21,1.29-.42,2.58-.67,3.87a1.4,1.4,0,0,0,1,1.79c1,.32,2,.58,3,.89.34.1.54.09.61-.36.2-1.43.44-2.87.66-4.32Zm-9.55-44.23c.11,1.76.21,3.38.33,5a1.91,1.91,0,0,0,1.33,1.8l3.51,1.25c-.11-1.81-.18-3.46-.32-5.12a1.58,1.58,0,0,0-1-1.51Zm.75,15.86c0,1.23-.12,2.33-.15,3.45-.08,2.78-.07,2.78,2.48,3.64.51.18,1.05.35,1.56.56s.68.19.68-.43c0-1.48,0-2.95,0-4.43a1.44,1.44,0,0,0-.9-1.46c-1.19-.45-2.41-.86-3.7-1.32Zm9.45-27.16a5.79,5.79,0,0,0,0,.6c0,.5.13,1,.19,1.49.57,4.63-.09,3.92,4.39,5.22,0,0,.07,0,.1,0,.49.19.75.13.67-.54-.18-1.34-.32-2.68-.43-4a1.88,1.88,0,0,0-1.47-1.78l-3.44-1Zm-9.67,35.05c-.13,1.6-.26,3.07-.36,4.53,0,.73,0,1.43.82,1.72,1.11.4,2.23.77,3.34,1.17.39.14.52,0,.55-.4.07-1.43.16-2.86.26-4.29a1.27,1.27,0,0,0-.81-1.38C85.61,255.08,84.36,254.67,83.05,254.21Zm3.12-31.38c-.2-1.53-.39-2.9-.55-4.27a2.64,2.64,0,0,0-2.07-2.5c-1-.27-2.07-.7-3.17-1.08.16,1.16.39,2.22.45,3.28.11,2.2,1.1,3.49,3.17,3.88a20.27,20.27,0,0,1,2.17.69Zm-4.26,26.22c.11-3.5.21-3.23-3-4.53l-.2-.09c-1.22-.52-1.23-.52-1.31.82,0,.89-.12,1.78-.13,2.66,0,2.11,0,2.24,2,3C81.87,252,81.87,252,81.91,249.05Zm-5.22-20.91c.13,1.8.23,3.49.38,5.17a1.54,1.54,0,0,0,.82,1.29,24.14,24.14,0,0,0,3.82,1.61c-.14-1.79-.26-3.45-.39-5.1a1.63,1.63,0,0,0-.85-1.41,26.08,26.08,0,0,0-3.79-1.57Zm5,27.14a1.84,1.84,0,0,0-1.35-2.21c-.83-.31-1.65-.64-2.46-1-.53-.24-.7-.06-.74.5-.07,1-.18,1.92-.29,2.88-.22,2.12-.11,2.33,1.78,3.1.68.28,1.39.5,2.06.82.46.21.57.06.62-.39.1-1.24.24-2.47.37-3.7ZM87,230.36a29.93,29.93,0,0,0-.48-4.82,1.5,1.5,0,0,0-1-1.29l-3.81-1.38c0,5.67.28,6.06,4.86,7.44a2,2,0,0,0,.42,0Zm1.75,4.95c.12,4.16,0,3.74,3.58,4.85l.31.11c.69.32.8,0,.75-.67-.08-1-.07-1.94-.14-2.9-.18-2.53-.19-2.53-2.47-3.24-2.12-.66-2.12-.66-2,1.62v.22Zm.42,15.92c-.17,3.64-.17,3.64,2.91,4.52a4.4,4.4,0,0,1,.51.18c.73.33,1,0,1-.74,0-1.09.06-2.17.08-3.26,0-1.72-.12-2-1.68-2.46-.88-.26-1.93-1.05-2.57-.6s-.14,1.71-.23,2.35Zm-2.48-33.91c0,.43.06.73.1,1s.12.69.17,1c.55,4.62.22,4,4.31,5.24l.21.08c.42.14.6,0,.51-.48-.17-1.26-.32-2.53-.44-3.8a2.27,2.27,0,0,0-1.87-2.23c-1-.23-1.9-.56-3-.89Zm7,9.71c.07,1,.09,1.81.18,2.65.41,3.63-.07,3.28,3.34,4.2a10.6,10.6,0,0,1,1.06.31c.43.16.6.06.55-.45-.12-1.35-.22-2.7-.33-4.05a1.6,1.6,0,0,0-1.15-1.53L93.69,227Zm-.29,32.84c0-2,0-2-1.62-2.52-.67-.21-1.35-.4-2-.65s-.79-.13-.79.56a20.36,20.36,0,0,1-.17,2.2c-.32,3-.33,3,2.46,3.79l1.27.39c.42.13.59,0,.61-.47,0-1.17.16-2.33.23-3.31ZM74.25,212.52c.22,1.27.48,2.33.56,3.38.14,2,.94,3.33,2.88,3.81a18.29,18.29,0,0,1,2.28.89c-.31-1.87-.43-3.64-.89-5.35a1.49,1.49,0,0,0-.83-1C77,213.66,75.71,213.13,74.25,212.52Zm3.15,23.65v4.66a1.66,1.66,0,0,0,.88,1.63c1.15.54,2.34,1,3.5,1.52V238.5a.66.66,0,0,0-.47-.68l-3.91-1.66Zm11.81,4.67v4.79a1.51,1.51,0,0,0,1,1.51,19.23,19.23,0,0,0,3.39,1v-4.51a1.73,1.73,0,0,0-1.32-1.87l-3.07-1Zm-1.29-15.61c-.31,5.23.23,6.07,4.6,7.15a.78.78,0,0,0,.26,0,38.81,38.81,0,0,0-.36-4.69,1.62,1.62,0,0,0-1.25-1.44c-1.06-.35-2.14-.66-3.24-1Zm-12.3-4.81c.26,1.84.5,3.51.75,5.18a1.22,1.22,0,0,0,.71,1c1.11.5,2.22,1,3.35,1.43.33.14.56.09.49-.4-.19-1.41-.36-2.84-.53-4.24a1.63,1.63,0,0,0-1-1.39c-1.17-.52-2.35-1-3.73-1.56Z"/><path class="cls-27" d="M226,202.22a1,1,0,0,1-.71,1.13c-14.53,6-29.15,11.81-44.41,15.48-.36.08-.69.2-1-.12l-4-3.51C193,212.3,209.48,207.52,226,202.22Z"/><path class="cls-27" d="M116.56,215c-1.41,1.22-2.67,2.28-3.88,3.4-.43.39-.79.21-1.22.11a211,211,0,0,1-30.12-10.4c-3.47-1.46-6.92-3-10.38-4.5-.52-.22-1-.41-.93-1.26C85.27,207.57,100.62,212.14,116.56,215Z"/><path class="cls-27" d="M183.55,294c1-1.29,1.87-2.45,2.76-3.61A.87.87,0,0,1,187,290c12.95-1.69,25.56-5.06,38.1-8.75.39-.12.75-.31.93.34s-.37.58-.62.67c-2.76.94-5.52,1.85-8.3,2.75a325.34,325.34,0,0,1-32.76,8.85C184.11,293.9,183.91,293.91,183.55,294Z"/><path class="cls-27" d="M107.76,292.94c-3.58-.9-6.91-1.68-10.21-2.56-8.93-2.36-17.77-5.1-26.54-8.05l-.42-.14c-.34-.11-.78-.13-.57-.72s.58-.34.9-.25c3.34.93,6.67,1.9,10,2.81a231.64,231.64,0,0,0,23.6,5.25c.29.05.59,0,.79.32C106.08,290.63,106.83,291.67,107.76,292.94Z"/><path class="cls-2" d="M209.64,269.61c-.63,0-.85-.42-.92-.88-.26-1.6-.44-3.22-.67-4.82-.06-.41.17-.55.45-.66l3.1-1.19c.81-.31,1.26,0,1.38.91.22,1.53.44,3,.67,4.58,0,.24.08.45-.2.57C212.17,268.61,210.91,269.11,209.64,269.61Z"/><path class="cls-2" d="M211.15,277.34c-.81.12-1.05-.26-1.15-.67-.33-1.55-.62-3.1-.93-4.65a.52.52,0,0,1,.29-.67l.09,0c1.11-.39,2.2-.82,3.3-1.25.67-.26,1.06,0,1.23.69.35,1.55.69,3.07,1,4.61.05.24.05.47-.22.57Z"/><path class="cls-2" d="M203.63,271.63a.71.71,0,0,1-.91-.57,49.88,49.88,0,0,1-.66-5.18c0-.36.15-.47.42-.56,1.09-.36,2.18-.71,3.25-1.1.68-.24,1,.1,1.1.72.26,1.65.46,3.3.69,4.95,0,.2,0,.4-.21.47A24.36,24.36,0,0,1,203.63,271.63Z"/><path class="cls-2" d="M206.75,272.27c.77,0,.95.31,1,.75.32,1.55.6,3.1.94,4.65.09.4-.12.49-.36.57-1.11.39-2.22.78-3.34,1.15a.85.85,0,0,1-1.24-.73c-.3-1.55-.58-3.1-.86-4.67,0-.19,0-.42.17-.49Z"/><path class="cls-2" d="M215.17,269.5c0-.12.2-.29.49-.41,1-.43,2-.83,3-1.27.71-.32,1.14-.1,1.32.67.36,1.5.7,3,1.06,4.5a.52.52,0,0,1-.29.67l-.09,0c-1,.42-2,.87-3.06,1.29-.6.26-1.13.17-1.31-.57C215.88,272.88,215.57,271.33,215.17,269.5Z"/><path class="cls-2" d="M214.12,261.91c0-.41,0-.73.49-.91,1-.36,1.9-.82,2.84-1.22.78-.32,1.19,0,1.32.82.23,1.52.45,3,.7,4.57.05.36,0,.57-.36.71-1,.41-2,.87-3.06,1.28-.71.28-1.12,0-1.24-.8C214.6,264.88,214.36,263.39,214.12,261.91Z"/><path class="cls-2" d="M201.16,271.73c.17.52-.21.58-.52.69l-2.84.95c-.73.26-1.15-.06-1.24-.83-.19-1.61-.34-3.23-.52-4.84,0-.32,0-.48.37-.57,1-.3,2-.64,3.06-.95.68-.22,1.06.11,1.15.82C200.82,268.57,201,270.15,201.16,271.73Z"/><path class="cls-2" d="M197,275.76c-.09-.22.1-.46.53-.6,1-.3,2-.61,3-.93.68-.23,1.08.08,1.2.77.29,1.52.52,3,.8,4.56.07.4-.05.56-.39.66l-3.06.95c-.77.23-1.17-.1-1.29-.92C197.55,278.83,197.31,277.42,197,275.76Z"/><path class="cls-2" d="M207.44,258c-.18-2.17-.18-2.17,1.77-3l1.23-.49c1.41-.51,1.6-.4,1.74,1.11.1,1.2.17,2.39.26,3.58,0,.47,0,.79-.54,1-1,.33-1.93.72-2.88,1.13s-1.29,0-1.38-.91S207.51,258.81,207.44,258Z"/><path class="cls-2" d="M207.25,236.42c.08-.65.15-1.29.23-1.95.11-.88-.14-2.16.43-2.54a17.07,17.07,0,0,1,3.89-1.51c.42-.15.63.17.59.58-.15,1.73-.32,3.42-.48,5.19,0,.36-.29.4-.53.49-.86.32-1.71.68-2.58,1C207.32,238.22,207.17,238.1,207.25,236.42Z"/><path class="cls-2" d="M211.8,249.78c0,2.52,0,2.52-2.15,3.4-2.47,1-2.56.94-2.56-1.84,0-1.16-.36-2.64.18-3.39s2-1,3.08-1.36,1.36-.3,1.44,1C211.83,248.31,211.8,249,211.8,249.78Z"/><path class="cls-2" d="M205.55,251.89c0,3,.67,2.56-2.5,3.61-1.9.63-2.09.5-2.14-1.59,0-1.16,0-2.32,0-3.48a.67.67,0,0,1,.52-.76c1-.32,2-.67,3-1,.74-.26,1.05.11,1.08.82S205.55,251.07,205.55,251.89Z"/><path class="cls-2" d="M196.74,221.86c-.19,1.23-.45,2.75-.67,4.27a.56.56,0,0,1-.48.52c-1.14.29-2.27.62-3.4.9-.6.15-.88-.11-.84-.8.1-1.62.48-3.2.7-4.8.06-.41.3-.46.59-.54,1-.26,2.05-.58,3.09-.82S196.78,220.49,196.74,221.86Z"/><path class="cls-2" d="M201.54,238.42c.07-.54.14-1.08.2-1.61.12-1-.19-2.38.46-2.87a12,12,0,0,1,3.61-1.31c.61-.19.83.19.78.74-.14,1.61-.34,3.22-.46,4.84,0,.47-.3.57-.61.68-.76.29-1.51.58-2.28.84C201.56,240.3,201.48,240.24,201.54,238.42Z"/><path class="cls-2" d="M206.45,261.64c.12.37-.13.63-.63.8-1,.32-1.95.67-2.92,1.05-.77.31-1.12,0-1.18-.8-.11-1.43-.21-2.86-.32-4.28a.66.66,0,0,1,.49-.78c1.05-.35,2.09-.72,3.13-1.1.67-.23,1,0,1,.74C206.17,258.66,206.31,260,206.45,261.64Z"/><path class="cls-2" d="M215.33,215.68c-.34,1.53-.7,3.1-1,4.69a.9.9,0,0,1-.06.22,15.89,15.89,0,0,1-4.39,1.61c-.34-.11-.3-.43-.26-.67.32-1.66.66-3.32,1-5,0-.08,0-.18.1-.2a17.53,17.53,0,0,1,4.34-1.54C215.46,214.72,215.28,215.31,215.33,215.68Z"/><path class="cls-2" d="M209.1,217.62c-.35,1.65-.71,3.31-1,5a.59.59,0,0,1-.44.46c-1.11.39-2.22.78-3.34,1.14-.72.23-1-.14-.85-.84.28-1.55.59-3.1.89-4.65a.67.67,0,0,1,.47-.57c1.19-.36,2.38-.76,3.57-1.14Q209.13,216.74,209.1,217.62Z"/><path class="cls-2" d="M212,241.44c-.18,2.84-.17,2.84-2.68,3.79-1.73.65-2.23,1.39-2.16-1.52.08-3.85,0-3.85,3.52-5,1.2-.41,1.31-.32,1.32,1Z"/><path class="cls-2" d="M195.81,240.23c.12-1.25.24-2.59.37-3.94a1.37,1.37,0,0,1,.07-.34c.16-.54,3.79-1.72,4.19-1.35a1,1,0,0,1,.21,1c-.13,1.5-.31,3-.42,4.49a.7.7,0,0,1-.58.71c-.77.26-1.53.52-2.3.75C195.86,242,195.75,241.9,195.81,240.23Z"/><path class="cls-2" d="M217.52,247.25c0,2.78,0,2.78-2.47,3.86-.34.14-.68.28-1,.4a.59.59,0,0,1-.86-.58c0-1.66,0-3.33-.07-5,0-.29.18-.38.4-.47,1-.42,2-.87,2.95-1.3.67-.27,1.08-.09,1.07.75S217.52,246.47,217.52,247.25Z"/><path class="cls-2" d="M206,243.72c-.26,2.86-.26,2.87-2.87,3.76l-.73.25c-.82.29-1.17,0-1.13-.91.07-1.39.1-2.78.11-4.18a.77.77,0,0,1,.56-.86c1.05-.34,2.09-.7,3.13-1.06.64-.23.91,0,.93.68S206,242.94,206,243.72Z"/><path class="cls-2" d="M198.11,226c-.54,0-.66-.37-.6-.79.26-1.63.56-3.27.84-4.91a1,1,0,0,1,.09-.21,12.9,12.9,0,0,1,4.15-1.23c.36.14.34.47.29.77-.3,1.59-.59,3.18-.91,4.77,0,.17-.15.41-.29.45C200.5,225.27,199.31,225.63,198.11,226Z"/><path class="cls-2" d="M218.21,256.75c.2.65-.16,1.06-.92,1.32s-1.62.7-2.43,1.05c-.58.26-1,.17-1.11-.6-.15-1.49-.26-3-.4-4.49,0-.37.15-.52.48-.66.95-.4,1.88-.83,2.84-1.26.72-.32,1.12-.09,1.19.74C218,254.1,218.08,255.31,218.21,256.75Z"/><path class="cls-2" d="M207.59,225.78c-.23,1.45-.47,2.91-.67,4.36a.64.64,0,0,1-.43.59c-1.11.41-2.22.82-3.34,1.2-.62.21-.93-.1-.85-.77.19-1.5.43-3,.63-4.49a.68.68,0,0,1,.55-.62c1.05-.35,2.09-.73,3.15-1.07C207.3,224.76,207.74,224.87,207.59,225.78Z"/><path class="cls-2" d="M208.3,229c.24-1.41.47-2.82.71-4.23.05-.29.09-.59.46-.71,1.18-.4,2.36-.84,3.53-1.27.65-.24.82.12.74.7-.22,1.52-.47,3.05-.7,4.58a.52.52,0,0,1-.32.43c-1.21.46-2.4.95-3.62,1.36C208.4,230.08,208.28,229.6,208.3,229Z"/><path class="cls-2" d="M213.54,234.17c.14-1.13.31-2.51.45-3.89a.81.81,0,0,1,.53-.78c1-.4,2-.83,3-1.22.59-.23,1-.15.93.69-.17,1.61-.35,3.23-.5,4.84,0,.41-.3.49-.56.6-.82.36-1.63.72-2.45,1C213.56,236,213.45,235.9,213.54,234.17Z"/><path class="cls-2" d="M213.2,240.52c-.47-2.21.64-3.14,2.47-3.8,2.16-.77,2.13-.87,2,1.49a8.58,8.58,0,0,0-.07,1.51c.23,1.86-.64,2.67-2.24,3.24-2.36.84-2.41,1.08-2.18-1.63C213.22,241.06,213.2,240.79,213.2,240.52Z"/><path class="cls-2" d="M215.76,219.06l1.11-4.67c.06-.28.26-.34.47-.42,1-.42,2-.86,3.08-1.26.67-.26,1.1-.15.87.77-.38,1.54-.75,3.07-1.11,4.61-.05.19-.09.39-.26.46-1.2.49-2.39,1-3.6,1.44C215.76,220.2,215.71,219.78,215.76,219.06Z"/><path class="cls-2" d="M196.25,232.61c.19-1.34.39-2.71.6-4.1,0-.22.11-.57.24-.61,1.22-.4,2.45-.78,3.69-1.1.44-.12.59.27.54.66-.2,1.57-.41,3.14-.66,4.7-.09.52-3.8,1.76-4.2,1.45S196.29,233.05,196.25,232.61Z"/><path class="cls-2" d="M214.41,226.76c.26-1.29.52-2.81.82-4.33,0-.17,0-.39.26-.47,1.19-.48,2.38-1,3.58-1.43.5-.18.67.14.58.64-.28,1.52-.55,3-.81,4.55,0,0,0,.08,0,.12-.15.42-3.75,2-4.13,1.84S214.43,227.25,214.41,226.76Z"/><path class="cls-2" d="M86.53,269.85l-3.84-1.35a1.28,1.28,0,0,1-.88-1.52c.18-1.53.39-3.06.55-4.59,0-.54.27-.52.64-.38,1,.38,2.07.74,3.12,1.1a1.45,1.45,0,0,1,1,1.7C87,266.45,86.74,268.09,86.53,269.85Z"/><path class="cls-2" d="M86.17,272.64c-.26,1.48-.5,3-.73,4.45-.08.49-.37.4-.65.31-1.11-.36-2.22-.74-3.34-1.12a1.16,1.16,0,0,1-.86-1.4c.25-1.52.51-3,.77-4.55.08-.47.33-.41.64-.3,1.07.37,2.16.72,3.23,1.1A1.3,1.3,0,0,1,86.17,272.64Z"/><path class="cls-2" d="M75.82,264.75c.26-1.81.49-3.23.66-4.65.08-.61.28-.65.78-.42a21.14,21.14,0,0,0,2.36.95A1.86,1.86,0,0,1,81,263c-.22,1.29-.42,2.59-.57,3.9-.07.57-.2.72-.73.48-.91-.41-1.85-.76-2.77-1.13S75.65,265.34,75.82,264.75Z"/><path class="cls-2" d="M74.47,272.43c.29-1.47.6-2.94.89-4.42.1-.48.33-.49.7-.33,1.15.49,2.32,1,3.47,1.43.34.14.54.3.45.76-.3,1.63-.56,3.27-.83,4.9-.07.43-.2.59-.65.39-1-.46-2.13-.83-3.19-1.26A1.26,1.26,0,0,1,74.47,272.43Z"/><path class="cls-2" d="M98.18,276.61c-.23,1.66-.41,3-.58,4.26,0,.39-.16.52-.56.4-1.09-.33-2.2-.61-3.29-.94a1.27,1.27,0,0,1-.92-1.59c.21-1.37.43-2.75.59-4.13.07-.56.29-.61.72-.48.89.26,1.77.5,2.66.73C97.85,275.14,98.39,275.76,98.18,276.61Z"/><path class="cls-2" d="M93,266.43c-.21,1.8-.37,3.19-.52,4.57-.06.54-.22.83-.83.6-.9-.34-1.83-.59-2.74-.87a1.32,1.32,0,0,1-1-1.58c.18-1.5.4-3,.56-4.49.06-.48.17-.58.62-.42.9.32,1.82.57,2.73.87S93.08,265.9,93,266.43Z"/><path class="cls-2" d="M92.07,274.7c-.22,1.45-.46,2.9-.66,4.35-.07.45-.26.47-.61.36-1-.31-2-.57-3-.89a1.39,1.39,0,0,1-1-1.79c.25-1.29.46-2.58.67-3.87.08-.54.21-.8.82-.57.89.35,1.81.61,2.73.88A1.24,1.24,0,0,1,92.07,274.7Z"/><path class="cls-2" d="M82.53,230.47l3.83,1.42a1.61,1.61,0,0,1,1,1.51c.14,1.66.21,3.32.32,5.12-1.25-.45-2.37-.86-3.51-1.25a1.91,1.91,0,0,1-1.33-1.8C82.74,233.85,82.64,232.23,82.53,230.47Z"/><path class="cls-2" d="M83.28,246.33c1.29.46,2.51.87,3.71,1.34a1.42,1.42,0,0,1,.9,1.46c0,1.47,0,3,0,4.42,0,.63-.24.61-.68.43s-1-.37-1.56-.55c-2.55-.87-2.56-.87-2.48-3.65C83.16,248.67,83.23,247.56,83.28,246.33Z"/><path class="cls-2" d="M92.66,219.1c1.21.35,2.34.67,3.47,1a1.84,1.84,0,0,1,1.46,1.78c.11,1.34.26,2.69.43,4,.09.67-.18.73-.66.54l-.11,0c-4.48-1.29-3.83-.59-4.39-5.22-.06-.49-.13-1-.18-1.49A3.32,3.32,0,0,1,92.66,219.1Z"/><path class="cls-2" d="M83.05,254.21c1.29.46,2.56.87,3.79,1.35a1.29,1.29,0,0,1,.82,1.38c-.1,1.43-.19,2.86-.26,4.29,0,.42-.16.54-.55.4-1.11-.4-2.23-.77-3.34-1.17-.78-.29-.87-1-.82-1.72C82.8,257.28,82.92,255.81,83.05,254.21Z"/><path class="cls-2" d="M86.17,222.83a18.94,18.94,0,0,0-2.18-.68c-2.06-.4-3.06-1.69-3.18-3.88,0-1.06-.28-2.12-.44-3.28,1.11.38,2.12.81,3.17,1.08a2.6,2.6,0,0,1,2.06,2.5C85.79,219.93,86,221.3,86.17,222.83Z"/><path class="cls-2" d="M81.91,249.05c0,3,0,3-2.62,1.9-1.93-.8-2-.93-2-3,0-.88.08-1.77.13-2.66.08-1.32.09-1.32,1.31-.82l.2.09C82.11,245.83,82,245.55,81.91,249.05Z"/><path class="cls-2" d="M83.31,238.65l3.34,1.11a1.69,1.69,0,0,1,1.21,1.73c0,1.55,0,3.08,0,4.74l-3.65-1.32a1.46,1.46,0,0,1-1-1.42,43.88,43.88,0,0,1,0-4.73Z"/><path class="cls-2" d="M76.61,228.06a26.08,26.08,0,0,1,3.79,1.57,1.62,1.62,0,0,1,.84,1.41c.14,1.65.26,3.31.39,5.1a25.5,25.5,0,0,1-3.82-1.6,1.58,1.58,0,0,1-.81-1.29C76.85,231.55,76.75,229.86,76.61,228.06Z"/><path class="cls-2" d="M81.7,255.27c-.13,1.23-.27,2.46-.39,3.69,0,.45-.16.6-.61.39-.67-.32-1.38-.54-2.07-.82-1.88-.77-2-1-1.77-3.1.1-1,.21-1.92.28-2.88,0-.56.21-.74.74-.5.81.37,1.63.7,2.46,1A1.84,1.84,0,0,1,81.7,255.27Z"/><path class="cls-2" d="M87,230.28a3,3,0,0,1-.43,0c-4.59-1.39-4.85-1.78-4.87-7.44l3.82,1.37a1.52,1.52,0,0,1,1,1.29A31.12,31.12,0,0,1,87,230.28Z"/><path class="cls-2" d="M88.7,235.25V235c-.09-2.27-.09-2.27,2-1.61,2.29.7,2.29.7,2.48,3.23.07,1,.06,1.94.13,2.9.06.65-.06,1-.74.67l-.32-.11C88.71,239,88.81,239.39,88.7,235.25Z"/><path class="cls-2" d="M89.18,251.22c.09-.64-.34-2,.22-2.36s1.7.34,2.57.6c1.57.46,1.73.74,1.69,2.46,0,1.09-.08,2.17-.09,3.26,0,.73-.23,1.07-1,.74a4.56,4.56,0,0,0-.52-.18C89,254.87,89,254.87,89.18,251.22Z"/><path class="cls-2" d="M86.63,217.24c1.1.33,2,.66,3,.88a2.25,2.25,0,0,1,1.87,2.23c.13,1.27.26,2.53.45,3.79.07.54-.11.62-.52.48l-.2-.08c-4.1-1.23-3.76-.62-4.32-5.24,0-.34-.12-.68-.16-1S86.68,217.69,86.63,217.24Z"/><path class="cls-2" d="M93.62,227l3.65,1.13a1.6,1.6,0,0,1,1.15,1.53c.12,1.35.21,2.7.34,4,0,.51-.13.61-.56.45a9.25,9.25,0,0,0-1.06-.31c-3.41-.92-2.92-.57-3.33-4.2C93.71,228.77,93.69,227.92,93.62,227Z"/><path class="cls-2" d="M93.4,259.86c-.07,1-.19,2.14-.24,3.3,0,.52-.22.59-.61.47l-1.27-.39c-2.79-.78-2.78-.78-2.46-3.79a20.36,20.36,0,0,0,.17-2.2c0-.69.26-.76.79-.56s1.33.44,2,.65C93.4,257.86,93.43,257.9,93.4,259.86Z"/><path class="cls-2" d="M74.25,212.52c1.45.62,2.73,1.15,4,1.71a1.49,1.49,0,0,1,.83,1c.46,1.71.58,3.48.89,5.35a18.91,18.91,0,0,0-2.28-.89c-1.94-.48-2.74-1.81-2.88-3.81C74.73,214.83,74.47,213.78,74.25,212.52Z"/><path class="cls-2" d="M77.4,236.16l3.92,1.65a.66.66,0,0,1,.47.69V244c-1.16-.5-2.35-1-3.5-1.52a1.67,1.67,0,0,1-.88-1.62C77.39,239.29,77.4,237.75,77.4,236.16Z"/><path class="cls-2" d="M89.21,240.84c1,.32,2.05.65,3.07.94a1.75,1.75,0,0,1,1.32,1.88v4.5a19.46,19.46,0,0,1-3.39-1,1.52,1.52,0,0,1-1-1.52C89.2,244,89.21,242.48,89.21,240.84Z"/><path class="cls-2" d="M87.87,225.15c1.09.33,2.18.64,3.26,1a1.64,1.64,0,0,1,1.25,1.44,39,39,0,0,1,.35,4.7c-.13,0-.2,0-.26,0C88.11,231.22,87.55,230.38,87.87,225.15Z"/><path class="cls-2" d="M75.57,220.34c1.36.56,2.55,1,3.73,1.55a1.63,1.63,0,0,1,1,1.39c.18,1.41.35,2.84.54,4.24.07.49-.16.54-.49.4-1.12-.46-2.24-.93-3.36-1.43a1.21,1.21,0,0,1-.71-1C76.06,223.86,75.83,222.19,75.57,220.34Z"/><path class="cls-28" d="M83.2,238.76s-.12-.11-.11-.12.15-.1.22,0Z"/><ellipse class="cls-27" cx="145.28" cy="255.61" rx="42.57" ry="42.73"/><path id="Shape" class="cls-1" d="M105.3,241.27a43.06,43.06,0,0,1,4.51-9c3.68-.52,35.24-4.16,51.13,17.87a39.61,39.61,0,0,1-14.9,5.47,49.29,49.29,0,0,0-40.74-14.34Z"/><path id="Shape-2" class="cls-1" d="M181.28,233.14a41.56,41.56,0,0,1,4.32,9.05c-9.13,19.44-31.48,28.86-39.93,31.81-.85-6.67-.28-8.32,1.32-14.23A46,46,0,0,0,181.28,233.14Z"/><path id="Shape-3" class="cls-26" d="M187.86,255.76a42.31,42.31,0,0,1-.62,6.93,79.43,79.43,0,0,1-36.94,25.82,42.59,42.59,0,0,1-3.86-10.29c7.81-2.66,29.63-11.49,40.72-29.93a42.44,42.44,0,0,1,.7,7.46Z"/><path id="Shape-4" class="cls-1" d="M156.11,296.89a41.66,41.66,0,0,1-3.55-4.62,80.81,80.81,0,0,0,32.09-20.33A42.71,42.71,0,0,1,156.11,296.89Z"/><path id="Shape-5" class="cls-1" d="M130.67,249.74a43.78,43.78,0,0,1,12.25,8.78,33.44,33.44,0,0,0-1,18.9v0a46.42,46.42,0,0,0,5.53,14.66,45.11,45.11,0,0,0,4,5.74,40.82,40.82,0,0,1-14.62-.36,72.55,72.55,0,0,1-6.1-47.75Z"/><path id="Shape-6" class="cls-26" d="M115.81,286.42c-5.94-20.66-3.5-34.2-1.07-41.13A44.84,44.84,0,0,1,126.68,248,76.77,76.77,0,0,0,131.33,296,42.52,42.52,0,0,1,115.81,286.42Z"/><path id="Shape-7" class="cls-1" d="M178.4,229.06a48.43,48.43,0,0,1-2.35,5,58.41,58.41,0,0,0-40.41-19.73A42.24,42.24,0,0,1,178.4,229.06Z"/><path id="Shape-8" class="cls-26" d="M124.12,218.87a55.53,55.53,0,0,1,49.6,19,42.94,42.94,0,0,1-9.28,9.84c-14.59-20.36-40.41-20.86-51-20.11A43.2,43.2,0,0,1,124.12,218.87Z"/><path id="Shape-9" class="cls-1" d="M104,245.74a43.59,43.59,0,0,1,6.35-.59c-2.1,6.64-3.89,17.85-.71,33.74A41.93,41.93,0,0,1,104,245.74Z"/><circle class="cls-27" cx="147.16" cy="185" r="40.45"/><circle class="cls-29" cx="147.16" cy="185" r="40.45"/><polygon class="cls-2" points="152.3 170.39 158.71 179.24 169.1 175.87 162.68 184.7 169.09 193.54 158.71 190.16 152.28 198.99 152.29 188.07 141.9 184.69 152.29 181.32 152.3 170.39"/><path class="cls-2" d="M156.19,206.79a22.1,22.1,0,1,1,10.51-41.54,27.2,27.2,0,1,0,0,38.89A21.93,21.93,0,0,1,156.19,206.79Z"/><text class="cls-30" transform="translate(107.64 351.2) rotate(14.45)">1</text><text class="cls-31" transform="translate(126.83 354.95) rotate(5.1)">9</text><text class="cls-32" transform="translate(146.65 356.76) rotate(-3.98)">5</text><text class="cls-33" transform="translate(166.11 355.11) rotate(-13.22)">6</text><polygon class="cls-34" points="196.45 351.16 196.1 342.1 187.37 339.66 195.88 336.53 195.5 327.47 201.11 334.6 209.61 331.44 204.56 338.97 210.19 346.08 201.47 343.61 196.45 351.16"/><polygon class="cls-34" points="92.91 348.14 87.64 341.52 79.74 344.52 84.4 337.47 79.12 330.87 87.26 333.13 91.9 326.06 92.27 334.51 100.43 336.74 92.51 339.7 92.91 348.14"/></g></g></g></g></svg>